<?xml version="1.0" encoding="UTF-8" standalone="no"?>
<!-- Created with Inkscape (http://www.inkscape.org/) -->

<svg
   version="1.1"
   id="svg1"
   width="1024"
   height="1024"
   viewBox="0 0 1024 1024"
   sodipodi:docname="Biker-Map-Logo.svg"
   inkscape:version="1.4.2 (f4327f4, 2025-05-13)"
   xmlns:inkscape="http://www.inkscape.org/namespaces/inkscape"
   xmlns:sodipodi="http://sodipodi.sourceforge.net/DTD/sodipodi-0.dtd"
   xmlns="http://www.w3.org/2000/svg"
   xmlns:svg="http://www.w3.org/2000/svg">
  <defs
     id="defs1" />
  <sodipodi:namedview
     id="namedview1"
     pagecolor="#ffffff"
     bordercolor="#000000"
     borderopacity="0.25"
     inkscape:showpageshadow="2"
     inkscape:pageopacity="0.0"
     inkscape:pagecheckerboard="0"
     inkscape:deskcolor="#d1d1d1"
     inkscape:zoom="1.7724609"
     inkscape:cx="655.30358"
     inkscape:cy="543.3124"
     inkscape:window-width="3840"
     inkscape:window-height="2054"
     inkscape:window-x="2869"
     inkscape:window-y="-11"
     inkscape:window-maximized="1"
     inkscape:current-layer="g1" />
  <g
     inkscape:groupmode="layer"
     inkscape:label="Image"
     id="g1">
    <path
       id="path1"
       style="fill:#000000;stroke-width:1.01623"
       d="m 540.4673,120.89309 -22.93164,0.0332 c -16.51439,0.0244 -23.26917,0.38139 -24.13672,1.27735 -0.66273,0.68442 -1.10159,3.31631 -0.97461,5.84961 l 0.23047,4.60546 -3.79297,0.64258 c -2.08632,0.35339 -7.10406,1.30812 -11.15039,2.1211 -4.04633,0.81299 -7.47521,1.47851 -7.62109,1.47851 h -0.002 -0.002 -0.002 c -0.15127,-0.055 -0.54386,-1.83409 -0.87891,-3.99805 -0.34038,-2.19822 -1.31659,-4.5945 -2.16797,-5.32421 l -1.54687,-1.32618 -12.21094,3.32618 c -14.26612,3.88702 -30.42675,10.231 -31.17187,12.23632 -0.28609,0.76994 0.41441,3.29512 1.55859,5.61133 l 2.08203,4.21094 -1.33984,0.89453 c -3.84012,2.55927 -14.92817,8.11914 -16.18946,8.11914 -0.79912,0 -2.38179,-1.62332 -3.51757,-3.61133 -1.29184,-2.26117 -2.83333,-3.61523 -4.11524,-3.61523 -4.32156,0 -36.29487,24.77836 -36.81836,28.5332 -0.16582,1.18933 0.84668,3.57259 2.25,5.29492 1.40331,1.72235 2.54602,3.52766 2.54102,4.01368 -0.005,0.486 -2.8535,4.12084 -6.33203,8.07421 l -6.32422,7.18555 -3.89453,-3.31445 c -2.14198,-1.82339 -4.68571,-3.31641 -5.65235,-3.31641 -0.96665,0 -3.81863,2.67344 -6.33594,5.93946 -5.54887,7.19935 -18.82329,27.56312 -20.54101,31.50976 l -1.24023,2.84961 2.33984,2.57031 c 1.28663,1.41438 2.94892,2.57227 3.69531,2.57227 2.72433,0 2.32097,3.00336 -1.57617,11.71484 l -3.98047,8.89844 -3.54297,-1.52734 c -5.63527,-2.43164 -7.33732,-1.99041 -9.54687,2.48242 -2.03185,4.11313 -7.33152,21.58693 -10.62696,35.03906 l -1.84961,7.55078 1.45899,0.96875 c 0.80236,0.5332 3.1853,1.26683 5.29492,1.63086 2.10963,0.36401 4.03123,1.19132 4.27149,1.83789 0.24025,0.64657 -0.13606,5.34438 -0.83594,10.43946 l -1.27149,9.26367 -5.21484,0.3125 -5.21484,0.31054 -0.78516,3.81836 c -1.23225,5.99085 -0.84908,37.4715 0.49609,40.74219 l 1.16992,2.83789 h 5.47852 5.47852 l 0.59179,3.87305 c 0.32527,2.13002 1.07637,6.79749 1.66797,10.37304 0.59159,3.57556 0.76073,6.82634 0.37696,7.22266 -0.38376,0.39632 -2.57542,1.19053 -4.8711,1.76367 l -4.17383,1.04102 0.10157,3.73437 c 0.12729,4.64678 6.4434,24.6948 10.98046,34.85547 l 3.39649,7.60938 2.26172,-0.53125 c 1.24316,-0.29119 3.69885,-0.86396 5.45898,-1.27344 l 3.20117,-0.74414 4.29102,8.93359 4.28906,8.93555 -3.24023,2.61914 c -1.78243,1.44064 -3.24024,3.26803 -3.24024,4.0625 0,1.48268 8.62399,14.92985 18.77539,29.27539 3.14861,4.4495 9.09961,12.89797 13.22461,18.77539 4.125,5.87741 12.53552,17.67566 18.69141,26.21875 6.15589,8.54302 12.00098,16.69524 12.98828,18.11524 7.07897,10.18148 47.55745,67.50149 48.36133,68.48242 1.1401,1.39123 7.54387,10.40282 26.92578,37.89453 7.40656,10.50562 17.78257,25.14135 23.05859,32.52539 5.27603,7.38405 12.45891,17.47424 15.96094,22.42187 3.61158,5.10245 7.69619,9.67413 9.43945,10.5625 6.02494,3.07039 15.34594,0.90008 20.20704,-4.70507 1.17334,-1.35293 11.3228,-15.70643 22.55468,-31.89453 11.23188,-16.1881 28.04741,-40.29347 37.36719,-53.56836 9.31978,-13.2749 19.38374,-27.68048 22.36524,-32.01368 2.98144,-4.33322 11.30643,-16.20954 18.5,-26.39062 7.19353,-10.18106 15.55507,-22.13628 18.58007,-26.56836 3.025,-4.43209 17.8247,-25.57834 32.88867,-46.99023 15.06404,-21.41191 27.60767,-39.79379 27.875,-40.84961 0.53783,-2.12392 -2.31124,-5.98243 -4.41796,-5.98243 -0.73976,0 -1.34571,-0.70766 -1.34571,-1.57226 0,-2.71179 7.95481,-18.04883 9.36133,-18.04883 0.73679,-1e-5 2.83216,0.53471 4.65625,1.19141 l 3.31641,1.19531 2.23437,-2.68164 c 2.77922,-3.3368 9.86566,-21.8755 12.71875,-33.27344 l 2.13867,-8.54883 -1.33593,-1.66211 c -0.73469,-0.91423 -2.74273,-1.66969 -4.46289,-1.67773 -1.72015,-0.009 -3.68267,-0.381 -4.36133,-0.82617 l -1.23438,-0.8086 1.51172,-9.64062 c 0.83053,-5.30312 1.83429,-10.16188 2.23242,-10.79492 0.39812,-0.63304 3.18115,-1.15039 6.1836,-1.15039 h 5.45898 l 0.86328,-3.61329 c 1.408,-5.89634 1.34545,-39.38758 -0.0781,-42.03515 l -1.22266,-2.27539 -4.80273,0.58789 -4.80078,0.58789 -1.25782,-9.91602 c -0.69094,-5.45412 -1.00999,-10.32646 -0.71093,-10.82617 0.29905,-0.49972 2.4075,-1.16465 4.6875,-1.48047 6.45269,-0.89382 6.67411,-1.57673 4.01757,-12.38476 -3.29324,-13.39842 -10.02402,-34.02653 -11.68359,-35.80469 l -1.39453,-1.49414 -5.04883,1.66797 -5.04687,1.66601 -3.97071,-8.15429 c -2.18339,-4.48468 -3.96875,-8.83978 -3.96875,-9.67774 0,-0.83797 1.55811,-2.28722 3.46289,-3.2207 6.08696,-2.98299 5.75246,-5.00604 -3.21875,-19.47266 -4.68374,-7.55282 -14.92906,-21.83003 -17.77539,-24.76953 -2.26596,-2.34013 -2.94303,-2.14609 -7.53125,2.13477 l -4.06836,3.79492 -7.15625,-7.39063 -7.15625,-7.39062 3.82227,-4.04297 c 2.68781,-2.84267 3.63933,-4.61212 3.20703,-5.95898 -0.67547,-2.1045 -14.48631,-13.6167 -27.21094,-22.68164 l -8.12695,-5.78711 -2.14062,0.70117 c -1.17761,0.386 -3.05742,2.5583 -4.17774,4.82617 -1.12031,2.26788 -2.3514,3.97095 -2.73437,3.78711 -5.30023,-2.54435 -16.09205,-8.65347 -17.41407,-9.85742 l -1.71875,-1.5625 1.46875,-2.16602 c 0.80755,-1.19068 1.46875,-3.41288 1.46875,-4.9375 v -2.77148 l -7.25,-3.0918 c -11.25291,-4.79736 -32.61082,-11.54859 -36.55664,-11.55664 -0.71843,-0.001 -2.20206,2.08851 -3.29687,4.64453 -1.28093,2.99056 -2.59734,4.61574 -3.69336,4.55859 -0.93676,-0.0488 -5.75313,-0.63468 -10.70313,-1.30078 l -9,-1.21093 v -4.82813 c 0,-2.6559 -0.58549,-5.44032 -1.30078,-6.1875 z m -20.05664,42.86719 c 31.48491,0.0182 56.44503,5.60582 82.71875,18.51953 44.5583,21.9007 77.33807,60.29781 93.89453,109.98437 3.92068,11.76614 7.33908,30.76557 8.68945,48.29493 l 1.16993,15.18554 -1.14258,12.82617 c -2.90397,32.59778 -11.72973,61.68243 -25.89844,85.35352 -30.3398,50.68746 -78.27069,83.30943 -134.25195,91.37305 -10.16772,1.46457 -37.37737,1.96788 -47.02149,0.86914 -25.16033,-2.86644 -57.25273,-13.79697 -77.14648,-26.27539 -42.78307,-26.83585 -73.3541,-69.98133 -85.87305,-121.19336 -4.00674,-16.3906 -5.38628,-31.77419 -4.66797,-52.0586 0.89363,-25.23541 4.77357,-44.79756 13.15821,-66.33984 27.70828,-71.18962 96.4111,-116.58533 176.37109,-116.53906 z m -3.2832,43.36523 c -2.2521,0 -11.40711,9.57665 -31.15039,32.58789 -4.89999,5.71105 -14.01699,16.29201 -20.26172,23.51367 l -11.35547,13.13086 -4.29297,-3.37695 c -2.36137,-1.85666 -7.08324,-5.58128 -10.49414,-8.2793 -3.41089,-2.69801 -6.66049,-4.90625 -7.2207,-4.90625 -1.42005,0 -4.86723,3.79537 -33.28711,36.66211 -13.75181,15.90357 -30.40181,35.15776 -37,42.78516 0,0 -17.4883,20.2535 -19.6062,23.72362 l 0.63281,3.92188 c 0.34798,2.15863 0.90086,4.62456 1.22852,5.47656 0.32767,0.85201 0.64362,5.06242 0.70312,9.35938 l 0.10938,7.81445 2.27148,2.98242 2.27149,2.98242 -0.62305,3.80469 c -0.66381,4.05766 0.99966,12.29883 2.48242,12.29883 2.05148,0 4.16116,3.46401 3.57617,5.87109 -0.87885,3.61624 2.80488,11.68555 5.33399,11.68555 2.32181,0 3.46519,2.87993 2.58398,6.50586 -0.84404,3.47302 2.77874,10.56258 6.2793,12.28906 2.05521,1.01362 2.88743,2.30709 3.25976,5.06836 0.73804,5.47349 4.82149,11.10481 7.90625,10.90039 2.54541,-0.16869 3.25185,1.02907 4.54688,7.7168 0.65276,3.3709 6.10077,9.56262 7.58203,8.61719 1.54901,-0.98867 4.9648,2.51167 4.96484,5.08789 3e-5,2.70333 6.41559,8.17614 10.40625,8.87695 1.85544,0.32583 3.52056,1.57962 4.51563,3.39649 1.65235,3.01693 6.65226,6.91411 8.88476,6.92578 0.71827,0.004 12.41827,-5.14349 26,-11.43555 52.19251,-24.17945 78.19336,-41.30199 78.19336,-51.49414 0,-6.17519 -7.32138,-10.77028 -33.20117,-20.83985 -26.05824,-10.139 -30.79883,-13.1677 -30.79883,-19.67773 0,-5.59805 11.64851,-14.37514 29.97071,-22.58203 8.66756,-3.88239 34.69365,-13.01832 48.02929,-16.85938 3.025,-0.87129 10.225,-2.96572 16,-4.65429 9.17585,-2.68296 27.92941,-7.05251 37.75,-8.79688 5.6652,-1.00629 3.52876,0.91111 -5,4.49024 -31.45931,13.20201 -68.29362,31.4975 -75,37.25195 -4.36927,3.74907 -4.93561,7.40188 -1.5,9.67188 1.2375,0.81763 6.3,2.70936 11.25,4.20703 59.26776,17.93207 75.5123,28.38917 75.4668,48.57226 -0.0389,17.2405 -16.27261,38.29351 -57.23242,74.22461 -5.25183,4.60705 -6.81145,7.45375 -5.06836,9.25391 1.52633,1.57629 10.13662,-0.41058 11.47656,-2.64844 0.521,-0.87013 3.31054,-1.31055 8.31055,-1.31055 h 7.52734 l 2.55078,-2.83984 c 2.5196,-2.80597 5.82415,-3.71967 6.90821,-1.9082 0.92324,1.54272 9.26435,-2.32831 11.58789,-5.37891 l 2.16015,-2.83984 3.15625,0.56445 c 4.11289,0.73607 10.83499,-3.11521 11.64844,-6.67383 0.63581,-2.7815 4.43993,-4.3856 7.12109,-3.00391 2.14251,1.10411 11.29102,-4.77466 10.54688,-6.77734 -0.80661,-2.17079 3.1183,-5.22481 6.27539,-4.88281 3.8581,0.41794 9.06445,-4.20608 9.06445,-8.05078 0,-3.89391 2.04062,-5.52534 5.3086,-4.24219 l 2.55078,1.00195 3.60351,-4.11718 c 1.98217,-2.26585 3.32023,-4.59695 2.97266,-5.17774 -0.75173,-1.25615 2.34121,-5.05469 4.11523,-5.05469 2.04126,0 7.44922,-7.111 7.44922,-9.79492 0,-2.46307 4.20508,-8.24054 5.22852,-7.18359 0.86013,0.88828 5.93118,-8.77048 5.22461,-9.95117 -0.99923,-1.66971 1.49147,-6.89699 3.55078,-7.45313 2.55149,-0.68907 6.30929,-8.59835 5.55664,-11.69531 -0.91548,-3.76696 0.35438,-7.46499 2.6875,-7.82422 2.79274,-0.42999 5.00361,-7.17233 4.18945,-12.7793 l -0.61718,-4.24609 1.68554,-1.74219 c 1.97795,-2.04269 4.64069,-12.83365 3.36719,-13.64648 -1.55758,-0.99413 -0.92434,-5.72092 1.12695,-8.41406 2.38684,-3.1337 2.462,-10.04733 0.46875,-13.13086 -5.55501,-8.59352 -10.86444,-15.93153 -16.89647,-23.29688 -2.16232,-2.64028 -10.16752,-11.61863 -17.56836,-20.13867 -43.84943,-50.48068 -68.89916,-77.9707 -71.04883,-77.9707 -0.9478,0 -6.08895,3.94931 -11.42578,8.77734 -5.33684,4.82803 -10.02577,8.77734 -10.41992,8.77734 -1.12553,0 -5.57357,-5.13463 -24.58789,-28.39843 -19.77378,-24.19299 -20.82251,-25.30274 -23.96289,-25.30274 z m -3.0586,25.57031 0.57617,15.87305 0.57422,15.87305 -1.35351,2.06445 c -7.68566,11.71864 -9.29688,14.5429 -9.29688,16.2832 0,1.74509 7.69933,15.4936 17.14844,30.625 1.5683,2.51138 2.85156,5.159 2.85156,5.88282 0,1.43473 -9.73165,-3.18584 -21.17383,-10.05469 -3.67095,-2.20371 -6.95177,-4.00586 -7.28906,-4.00586 -0.33729,0 -3.04368,5.34296 -6.01562,11.875 -2.97195,6.53204 -5.65078,11.87695 -5.95117,11.87695 -0.30039,0 -2.13149,-3.25249 -4.07032,-7.22851 -1.93883,-3.97603 -3.96626,-7.23047 -4.50586,-7.23047 -1.11845,0 -14.51783,12.10646 -20.44726,18.47461 -2.17412,2.33498 -4.19912,4.21615 -4.5,4.18164 -0.30088,-0.0345 -4.13562,-5.64585 -8.52149,-12.47266 -4.38587,-6.8268 -8.21087,-12.56321 -8.5,-12.74609 -0.28913,-0.1829 -8.62539,4.45273 -18.52539,10.30273 -9.9,5.85001 -18.15632,10.48367 -18.34765,10.29688 -0.98468,-0.9613 21.72696,-31.6686 31.67187,-42.82227 l 5.06445,-5.68164 9.71876,10.07031 c 5.34519,5.53804 10.27116,10.06836 10.94726,10.06836 0.6761,0 4.52629,-4.06512 8.55469,-9.03515 15.83827,-19.54044 35.54445,-43.58484 43.27148,-52.79492 z"
       sodipodi:nodetypes="ccscccsscccscccscccsssssscccsssccscccscccssccccccccccsscccccccccccsssssssssssssssssssssccccccccccsscccccccssssccccsssscccccscccsscccscccssccsccsssscssssssssscscccssssccscccccsssssssssssscsssssssssssssssssccscccssssscccsssssssscccsssssssssccccccssssssssssssssscccsscc" />
  </g>
</svg>
